<?xml version="1.0" encoding="utf-8"?>
<!-- Generator: Adobe Illustrator 17.0.0, SVG Export Plug-In . SVG Version: 6.00 Build 0)  -->
<!DOCTYPE svg PUBLIC "-//W3C//DTD SVG 1.1//EN" "http://www.w3.org/Graphics/SVG/1.1/DTD/svg11.dtd">
<svg version="1.1" id="Слой_1" xmlns="http://www.w3.org/2000/svg" xmlns:xlink="http://www.w3.org/1999/xlink" x="0px" y="0px"
	 width="512px" height="512px" viewBox="0 0 512 512" enable-background="new 0 0 512 512" xml:space="preserve">
<g id="gjuWyK_1_">
	<g>
		<path d="M16.432,261.866c-2.059-130.01,97.303-234.707,220.916-244.578c138.539-11.063,249.744,94.444,259.415,220.279
			c10.642,138.469-94.411,249.326-220.096,259.188C136.673,507.74,19.627,398.944,16.432,261.866z M121.519,257.019
			c0.021,75.162,60.606,135.567,135.847,135.443c74.663-0.123,135.102-60.64,135.095-135.269
			c-0.007-75.265-60.497-135.774-135.63-135.673C181.842,121.621,121.498,182.049,121.519,257.019z M262.869,64.272
			c-1.253,0-2.506-0.002-3.759,0c-6.335,0.012-10.191,2.888-10.161,7.836c0.024,3.901,2.762,7.984,10.307,8.348
			c11.976,0.578,24.071,1.676,35.785,4.132c33.111,6.94,61.597,22.855,85.776,46.513c4.37,4.276,8.819,4.543,12.387,0.969
			c3.39-3.395,3.018-8.337-1.133-12.384C356.121,84.634,312.909,66.493,262.869,64.272z M251.005,449.726
			c1.41,0,2.82,0.004,4.23-0.001c6.108-0.023,9.962-3.254,9.818-8.229c-0.139-4.81-3.84-7.371-9.768-7.822
			c-10.587-0.805-21.274-1.352-31.679-3.292c-34.922-6.509-64.969-22.633-90.382-47.44c-4.442-4.336-8.752-4.661-12.386-1.116
			c-3.452,3.368-3.142,8.368,0.982,12.393C157.755,429.29,200.969,447.447,251.005,449.726z"/>
		<path d="M220.621,156.529c24.335-8.51,48.019-8.438,72.418-0.173c-1.04,1.776-1.738,3.259-2.693,4.553
			c-7.14,9.669-14.312,19.314-21.525,28.929c-1.026,1.367-2.264,2.593-3.508,3.775c-5.903,5.608-11.182,5.913-16.625-0.085
			c-6.284-6.925-12.003-14.383-17.697-21.815C227.401,167.028,224.306,161.965,220.621,156.529z"/>
		<path d="M201.967,165.345c3.734,16.117,7.459,31.078,10.579,46.164c1.431,6.918-2.519,12.242-9.441,12.403
			c-15.439,0.36-30.896-0.049-47.631-0.153C164.359,198.402,179.26,179.998,201.967,165.345z"/>
		<path d="M150.946,243.978c15.464,5.7,30.541,11.644,44.146,20.658c4.983,3.302,5.925,7.758,2.652,13.074
			c-3.592,5.834-7.783,11.354-12.168,16.632c-5.766,6.94-11.977,13.51-18.337,20.619
			C153.427,292.814,148.068,269.594,150.946,243.978z"/>
		<path d="M346.394,315.492c-9.921-12.111-19.519-23.241-28.42-34.903c-5.782-7.576-4.611-13.469,3.677-17.816
			c13.34-6.997,27.131-13.136,41.252-19.886C365.901,269.483,360.581,292.708,346.394,315.492z"/>
		<path d="M246.168,363.371c-25.978-3.211-47.409-13.531-66.184-32.39c14.23-6.871,27.698-13.734,41.484-19.885
			c7.244-3.232,12.126-1.525,14.479,4.595C241.745,330.768,243.875,346.675,246.168,363.371z"/>
		<path d="M358.377,223.239c-13.224,0.42-25.369,0.874-37.517,1.148c-3.588,0.081-7.256,0.028-10.767-0.616
			c-6.509-1.194-10.014-5.299-8.735-11.683c3.079-15.369,6.894-30.591,10.614-46.75
			C334.479,179.691,349.336,198.108,358.377,223.239z"/>
		<path d="M334.054,330.954c-18.976,18.897-40.296,29.199-66.093,32.389c0.744-5.2,1.189-10.101,2.182-14.888
			c2.023-9.752,3.963-19.548,6.642-29.128c2.688-9.613,7.387-11.98,16.528-7.934C306.825,317.375,319.985,324.15,334.054,330.954z"
			/>
		<path d="M257.156,233.773c12.762,0.159,23.262,10.874,23.028,23.501c-0.234,12.613-10.631,22.908-23.141,22.914
			c-12.73,0.006-23.331-10.588-23.273-23.256C233.828,244.235,244.551,233.616,257.156,233.773z"/>
		<path d="M225.999,230.82c-3.459-0.046-5.891-1.998-5.375-5.081c0.334-1.995,2.854-4.66,4.827-5.104
			c3.031-0.683,5.251,1.573,5.315,5.009C230.826,228.843,229.1,230.53,225.999,230.82z"/>
		<path d="M288.112,230.829c-3.128-0.245-4.91-1.862-4.902-5.087c0.008-3.437,2.175-5.747,5.214-5.13
			c1.991,0.404,4.593,3.036,4.952,5.025C293.924,228.671,291.548,230.725,288.112,230.829z"/>
		<path d="M226.768,282.378c1.339,1.886,3.421,3.62,3.848,5.694c0.686,3.327-1.741,5.421-4.922,5.452
			c-3.205,0.032-5.619-2.207-5.128-5.373c0.322-2.077,2.579-3.853,3.97-5.764C225.279,282.383,226.023,282.38,226.768,282.378z"/>
		<path d="M289.541,282.403c1.361,1.937,3.606,3.759,3.877,5.837c0.409,3.139-2.001,5.381-5.231,5.284
			c-3.193-0.096-5.559-2.236-4.816-5.544c0.464-2.064,2.573-3.759,3.944-5.62C288.057,282.374,288.799,282.388,289.541,282.403z"/>
	</g>
</g>
</svg>
