<?xml version="1.0" encoding="utf-8"?>
<!-- Generator: Adobe Illustrator 17.0.0, SVG Export Plug-In . SVG Version: 6.00 Build 0)  -->
<!DOCTYPE svg PUBLIC "-//W3C//DTD SVG 1.1//EN" "http://www.w3.org/Graphics/SVG/1.1/DTD/svg11.dtd">
<svg version="1.1" id="Слой_1" xmlns="http://www.w3.org/2000/svg" xmlns:xlink="http://www.w3.org/1999/xlink" x="0px" y="0px"
	 width="512px" height="512px" viewBox="0 0 512 512" enable-background="new 0 0 512 512" xml:space="preserve">
<g id="PLMnlK_1_">
	<g>
		<path d="M256.679,257.084c0,22.648,0,44.75,0,66.872c-27.023-7.742-47.868,3.044-58.926,18.938
			c-12.975,18.65-13.267,45.393-0.55,64.452c10.409,15.6,30.66,27.635,59.566,19.809c0,17.68,0,35.321,0,53.362
			c-74.405,0-148.756,0-223.392,0c0-74.276,0-148.506,0-223.409c1.84,0,3.605,0,5.371,0c22.161-0.005,44.325,0.141,66.482-0.17
			c3.56-0.05,7.639-1.394,10.495-3.483c3.517-2.573,4.35-6.592,2.113-11.126c-6.838-13.866-5.308-27.296,4.129-39.261
			c9.779-12.398,23.119-16.751,38.339-12.801c14.363,3.727,23.325,13.333,26.729,28.013c1.738,7.496,0.564,14.49-2.479,21.36
			c-4.531,10.228,0.164,17.384,11.559,17.424C216.105,257.134,236.096,257.084,256.679,257.084z"/>
		<path d="M273.132,257.106c18.608,0,36.429-0.126,54.247,0.06c7.403,0.077,14.199,7.106,14.467,15.212
			c0.15,4.547-0.18,9.522-1.884,13.647c-7.416,17.955,0.088,35.706,12.139,44.671c13.125,9.764,31.609,9.83,44.661-0.049
			c13.927-10.541,18.902-28.233,12.528-45.129c-2.98-7.899-4.085-15.799,1.991-22.487c2.555-2.812,6.849-5.57,10.429-5.671
			c19.469-0.549,38.961-0.261,58.826-0.261c0,74.578,0,148.932,0,223.547c-69.013,0-137.911,0-207.404,0
			c0-1.951,0.001-3.728,0-5.504c-0.008-17.997,0.126-35.996-0.153-53.988c-0.051-3.296-1.18-6.927-2.879-9.763
			c-2.625-4.383-7.631-5.154-12.183-2.768c-22.99,12.053-51.916-5.193-53.057-31.056c-1.306-29.605,29.667-47.736,52.785-34.934
			c6.779,3.754,14.343-1.253,15.342-9.571c0.257-2.139,0.138-4.327,0.139-6.493c0.008-21.163,0.005-42.326,0.005-63.488
			C273.132,261.284,273.132,259.487,273.132,257.106z"/>
		<path d="M256.918,240.674c-18.678,0-36.597,0-54.579,0c8.254-28.961-4.48-50.421-20.446-60.839
			c-19.251-12.56-45.256-12.063-63.793,1.425c-18.332,13.34-25.49,35.725-18.824,59.382c-21.922,0-43.768,0-65.891,0
			c0-69.083,0-137.975,0-207.214c74.276,0,148.498,0,223.533,0c0,1.58,0,3.325,0,5.069c0,21.325,0,42.649,0,63.974
			c0,11.021,9.031,19.042,19.857,17.412c3.253-0.49,6.493-1.411,9.587-2.549c14.282-5.255,29.834-1.922,39.975,8.729
			c10.234,10.749,13.12,26.789,7.251,40.301c-5.919,13.626-19.996,22.991-34.83,22.408c-5.038-0.198-10.115-1.725-14.987-3.244
			c-5.896-1.838-11.671-2.948-17.422-0.047c-6.053,3.053-9.731,7.486-9.531,14.939C257.173,213.705,256.918,227.006,256.918,240.674
			z"/>
	</g>
</g>
</svg>
