<?xml version="1.0" encoding="utf-8"?>
<!-- Generator: Adobe Illustrator 21.0.0, SVG Export Plug-In . SVG Version: 6.00 Build 0)  -->
<svg version="1.1" id="Слой_1" xmlns="http://www.w3.org/2000/svg" xmlns:xlink="http://www.w3.org/1999/xlink" x="0px" y="0px"
	 viewBox="0 0 512 512" style="enable-background:new 0 0 512 512;" xml:space="preserve">
<metadata><?xpacket begin="﻿" id="W5M0MpCehiHzreSzNTczkc9d"?>
<x:xmpmeta xmlns:x="adobe:ns:meta/" x:xmptk="Adobe XMP Core 5.6-c137 79.159768, 2016/08/11-13:24:42        ">
   <rdf:RDF xmlns:rdf="http://www.w3.org/1999/02/22-rdf-syntax-ns#">
      <rdf:Description rdf:about=""/>
   </rdf:RDF>
</x:xmpmeta>
                                                                                                    
                                                                                                    
                                                                                                    
                                                                                                    
                                                                                                    
                                                                                                    
                                                                                                    
                                                                                                    
                                                                                                    
                                                                                                    
                                                                                                    
                                                                                                    
                                                                                                    
                                                                                                    
                                                                                                    
                                                                                                    
                                                                                                    
                                                                                                    
                                                                                                    
                                                                                                    
                           
<?xpacket end="w"?></metadata>
<style type="text/css">
	.st0{fill:#00318E;}
</style>
<g id="mVK224_1_">
	<g>
		<path class="st0" d="M22.9,174.9c21,16,41.1,31.4,61.2,46.8c48.9,37.4,97.8,74.8,146.7,112.2c12.8,9.8,26.3,9.7,39.2,0.1
			c67.9-51,135.9-102,203.8-153c1.1-0.9,2.3-1.6,4.2-3c0,2.1,0,3.5,0,4.9c0,70.9,0,141.9,0,212.8c0,18.8-12.1,30.9-30.7,30.9
			c-129.7,0-259.5,0-389.2-0.1c-5,0-10.2-0.2-14.9-1.5c-12.4-3.4-20.2-14.5-20.2-28.1c-0.1-27.7,0-55.4,0-83.1
			c0-44.4,0-88.9,0-133.3C22.9,179.1,22.9,177.5,22.9,174.9z"/>
		<path class="st0" d="M250.4,289c-18.8-14.5-37.4-28.9-56.1-43.2c-56-43.2-112-86.4-168.1-129.5c-2.3-1.7-3.6-3.2-3-6.5
			c3-15,14-24.3,29.3-24.4c52.4,0,104.8,0,157.3,0c79.2,0,158.4,0,237.7,0c16,0,27.1,9.2,30.1,24.5c0.5,2.8-0.3,4.3-2.4,5.9
			c-65.9,50.7-131.8,101.5-197.6,152.3C268.6,275,259.7,281.8,250.4,289z"/>
	</g>
</g>
</svg>
