<?xml version="1.0" encoding="utf-8"?>
<!-- Generator: Adobe Illustrator 21.0.0, SVG Export Plug-In . SVG Version: 6.00 Build 0)  -->
<svg version="1.1" id="Слой_1" xmlns="http://www.w3.org/2000/svg" xmlns:xlink="http://www.w3.org/1999/xlink" x="0px" y="0px"
	 viewBox="0 0 512 512" style="enable-background:new 0 0 512 512;" xml:space="preserve">
<metadata><?xpacket begin="﻿" id="W5M0MpCehiHzreSzNTczkc9d"?>
<x:xmpmeta xmlns:x="adobe:ns:meta/" x:xmptk="Adobe XMP Core 5.6-c137 79.159768, 2016/08/11-13:24:42        ">
   <rdf:RDF xmlns:rdf="http://www.w3.org/1999/02/22-rdf-syntax-ns#">
      <rdf:Description rdf:about=""/>
   </rdf:RDF>
</x:xmpmeta>
                                                                                                    
                                                                                                    
                                                                                                    
                                                                                                    
                                                                                                    
                                                                                                    
                                                                                                    
                                                                                                    
                                                                                                    
                                                                                                    
                                                                                                    
                                                                                                    
                                                                                                    
                                                                                                    
                                                                                                    
                                                                                                    
                                                                                                    
                                                                                                    
                                                                                                    
                                                                                                    
                           
<?xpacket end="w"?></metadata>
<style type="text/css">
	.st0{fill:#00318E;}
</style>
<g id="BLGU2J_1_">
	<g>
		<path class="st0" d="M260.8,470c-22.1-26.5-44.7-52-65.5-78.9c-28.3-36.6-51.5-76.4-67.4-120.2c-8.4-23-14.2-46.6-13.5-71.4
			c1-39.7,15.6-73.7,43.5-101.9c22.4-22.5,49.5-36.2,80.8-41c74-11.2,143.4,34.6,163.5,106.7c6.3,22.6,6.6,45.5,2.9,68.6
			c-7.5,46.4-27.6,87.6-52.5,126.7c-16.4,25.8-35.4,49.6-56.4,71.9c-11.1,11.8-21.7,24.1-32.4,36.2
			C262.8,467.7,261.9,468.7,260.8,470z M194.5,202.2c0,37.1,29.4,66.7,66.2,66.8c36.7,0.1,66.5-29.6,66.7-66.6
			c0.2-36.6-29.9-67.1-66.2-67.2C224.3,135.1,194.6,165,194.5,202.2z"/>
	</g>
</g>
</svg>
