<?xml version="1.0" encoding="utf-8"?>
<!-- Generator: Adobe Illustrator 21.0.0, SVG Export Plug-In . SVG Version: 6.00 Build 0)  -->
<svg version="1.1" id="Слой_1" xmlns="http://www.w3.org/2000/svg" xmlns:xlink="http://www.w3.org/1999/xlink" x="0px" y="0px"
	 viewBox="0 0 512 512" style="enable-background:new 0 0 512 512;" xml:space="preserve">
<metadata><?xpacket begin="﻿" id="W5M0MpCehiHzreSzNTczkc9d"?>
<x:xmpmeta xmlns:x="adobe:ns:meta/" x:xmptk="Adobe XMP Core 5.6-c137 79.159768, 2016/08/11-13:24:42        ">
   <rdf:RDF xmlns:rdf="http://www.w3.org/1999/02/22-rdf-syntax-ns#">
      <rdf:Description rdf:about=""/>
   </rdf:RDF>
</x:xmpmeta>
                                                                                                    
                                                                                                    
                                                                                                    
                                                                                                    
                                                                                                    
                                                                                                    
                                                                                                    
                                                                                                    
                                                                                                    
                                                                                                    
                                                                                                    
                                                                                                    
                                                                                                    
                                                                                                    
                                                                                                    
                                                                                                    
                                                                                                    
                                                                                                    
                                                                                                    
                                                                                                    
                           
<?xpacket end="w"?></metadata>
<style type="text/css">
	.st0{fill:#1E348A;}
</style>
<g id="u40l8V_1_">
	<g>
		<path class="st0" d="M390.8,486.7c-34.2-1.1-67.1-8.6-98.9-20.8c-65.6-25.2-119.2-66.7-162.2-121.9
			c-40-51.4-65.9-109.3-77.4-173.2c-3.6-19.7-4.4-40-5.8-60c-0.5-7.5,0.5-15.2,1.9-22.6c1.7-9.3,7.9-16.4,13.7-23.4
			c11.3-13.6,25-24.5,39.9-33.9c10.5-6.6,21.9-7.3,33-2.7c9.3,3.9,18.4,9,26.6,14.9c3.9,2.8,6.7,8.2,8.3,13.1
			c5.1,16,10,32.1,13.9,48.4c3.1,12.9,4.5,26.2,7,39.2c1.2,6.6-0.4,12.5-4.2,17.5c-4.2,5.7-8.9,11.2-13.9,16.2
			c-7.5,7.4-15.3,14.5-23.3,21.4c-3,2.6-3.8,4.8-2.3,8.6c9.5,24.8,23.1,47.3,38.7,68.6c27.8,38,62.3,68.9,102.2,93.8
			c10.7,6.7,10.7,6.2,20.1-1.8c9.8-8.3,19.7-16.5,30-24.3c8.6-6.5,18.1-8.3,28.9-5.1c23.4,7,46.4,15,69.1,24.2
			c17.4,7.1,27.6,19.2,33,36.7c5.2,16.7,3.8,31.5-8.5,44.8c-12.6,13.6-25.8,26.3-42.2,35.5C409.8,484.7,400.7,487.2,390.8,486.7z"/>
	</g>
</g>
</svg>
